<svg xmlns="http://www.w3.org/2000/svg" xmlns:xlink="http://www.w3.org/1999/xlink" width="140" zoomAndPan="magnify" viewBox="0 0 104.88 104.999996" height="140" preserveAspectRatio="xMidYMid meet" version="1.0"><defs><clipPath id="7b3a540c76"><path d="M 0 0.453125 L 104.761719 0.453125 L 104.761719 104.585938 L 0 104.585938 Z M 0 0.453125 " clip-rule="nonzero"/></clipPath></defs><g clip-path="url(#7b3a540c76)"><path fill="#f46914" d="M 103.957031 57.070312 L 96.160156 44.453125 C 95.832031 43.921875 95.757812 43.28125 95.960938 42.6875 L 96.394531 41.421875 C 96.875 40.007812 96.980469 38.484375 96.695312 37.015625 C 96.542969 36.226562 96.402344 35.472656 96.265625 34.746094 C 95.175781 28.960938 94.386719 24.78125 91.460938 20.183594 C 87.902344 14.59375 82.804688 9.816406 76.726562 6.375 C 73.070312 4.304688 69.109375 2.753906 65.007812 1.761719 L 65.023438 14.597656 L 51.324219 14.613281 L 51.316406 8.15625 L 57.578125 8.148438 L 57.566406 0.519531 L 50.015625 0.527344 L 50.015625 0.503906 C 46.890625 0.632812 43.9375 0.972656 41.175781 1.527344 L 41.183594 7.804688 L 35.035156 7.8125 L 35.042969 14.625 L 27.667969 14.632812 L 27.675781 22.28125 L 20.066406 22.289062 L 20.074219 29.636719 L 35.0625 29.621094 L 35.070312 37.605469 L 28.921875 37.613281 L 28.929688 43.761719 L 35.078125 43.757812 L 35.070312 37.609375 L 42.203125 37.601562 L 42.210938 44.609375 L 50.070312 44.601562 L 50.085938 59.597656 L 35.054688 59.613281 L 35.0625 67.863281 L 42.238281 67.855469 L 42.246094 74.546875 L 50.105469 74.59375 L 50.113281 83.4375 L 56.191406 83.429688 L 56.195312 89.582031 L 42.589844 89.597656 L 42.597656 96.964844 L 35.085938 96.972656 L 35.09375 104.433594 C 37.589844 104.433594 40.09375 104.441406 42.605469 104.453125 L 42.597656 96.964844 L 50.222656 96.957031 L 50.230469 104.488281 C 52.722656 104.503906 55.210938 104.515625 57.6875 104.523438 L 57.679688 98.753906 L 63.828125 98.746094 L 63.835938 104.535156 C 67.394531 104.535156 70.914062 104.515625 74.367188 104.472656 C 74.34375 100.660156 75.5 94.269531 77.09375 90.316406 C 77.089844 90.335938 77.082031 90.347656 77.082031 90.355469 C 77.085938 90.34375 77.097656 90.3125 77.109375 90.285156 C 80.402344 90.992188 84.65625 91.699219 88.46875 91.695312 C 89.246094 91.695312 90.003906 91.660156 90.738281 91.597656 C 93.003906 91.394531 94.773438 90.535156 96 89.046875 C 98.109375 86.503906 97.800781 83.054688 97.785156 82.910156 L 97.015625 78.558594 C 96.949219 78.167969 97.042969 77.761719 97.277344 77.441406 L 98.871094 75.296875 C 99.070312 75.023438 99.195312 74.714844 99.230469 74.394531 C 99.382812 73.125 98.75 72.195312 98.101562 71.597656 C 99.140625 70.863281 99.527344 70.078125 99.652344 69.492188 C 99.742188 69.066406 99.691406 68.605469 99.503906 68.195312 L 98.757812 66.554688 C 98.472656 65.929688 98.34375 65.257812 98.386719 64.605469 C 98.425781 64.015625 98.570312 63.710938 98.648438 63.589844 C 99.191406 63.363281 100.886719 62.648438 102.800781 61.761719 C 103.886719 61.257812 104.308594 60.507812 104.464844 59.964844 C 104.871094 58.578125 104.046875 57.214844 103.957031 57.070312 Z M 35.054688 24.300781 L 35.042969 14.625 L 44.714844 14.613281 L 44.722656 24.289062 Z M 51.449219 28.199219 L 57.597656 28.191406 L 57.605469 34.34375 L 51.457031 34.347656 Z M 56.171875 74.316406 L 56.167969 68.167969 L 62.316406 68.160156 L 62.320312 74.3125 Z M 57.621094 51.847656 L 57.613281 44.222656 L 65.238281 44.214844 L 65.246094 51.839844 Z M 67.597656 63.910156 L 67.589844 58.234375 L 73.261719 58.226562 L 73.265625 63.902344 Z M 29.847656 58.277344 L 21.074219 58.285156 L 21.066406 49.511719 L 29.835938 49.5 Z M 30.367188 74.265625 L 30.375 84.515625 L 20.132812 84.523438 L 20.121094 74.277344 Z M 10.246094 47.445312 L 10.253906 57.695312 L 0.0117188 57.707031 L 0 47.457031 Z M 25.261719 90.832031 L 25.265625 96.984375 L 19.117188 96.992188 L 19.113281 90.839844 Z M 19.726562 69.539062 L 13.582031 69.542969 L 13.574219 63.394531 L 19.722656 63.386719 Z M 13.925781 41.402344 L 13.917969 35.25 L 20.066406 35.246094 L 20.074219 41.394531 Z M 3.667969 27.28125 L 3.660156 21.132812 L 9.808594 21.128906 L 9.8125 27.277344 Z M 14.832031 14.34375 L 14.820312 4.671875 L 24.492188 4.660156 L 24.503906 14.335938 Z M 8.226562 74.453125 L 8.230469 80.601562 L 2.082031 80.609375 L 2.078125 74.460938 Z M 45.660156 54.898438 L 39.511719 54.902344 L 39.507812 48.753906 L 45.652344 48.746094 Z M 42.578125 84.503906 L 36.429688 84.507812 L 36.425781 78.359375 L 42.570312 78.351562 Z M 42.578125 84.503906 " fill-opacity="1" fill-rule="nonzero"/></g></svg>